<?xml version="1.0" encoding="UTF-8" standalone="no"?>
<!DOCTYPE svg PUBLIC "-//W3C//DTD SVG 1.1//EN" "http://www.w3.org/Graphics/SVG/1.1/DTD/svg11.dtd">
<svg width="100%" height="100%" viewBox="0 0 512 512" version="1.1" xmlns="http://www.w3.org/2000/svg" xmlns:xlink="http://www.w3.org/1999/xlink" xml:space="preserve" xmlns:serif="http://www.serif.com/" style="fill-rule:evenodd;clip-rule:evenodd;stroke-linejoin:round;stroke-miterlimit:2;">
    <path d="M512,51.2C512,22.942 489.058,0 460.8,0L51.2,0C22.942,0 0,22.942 0,51.2L0,460.8C0,489.058 22.942,512 51.2,512L460.8,512C489.058,512 512,489.058 512,460.8L512,51.2Z" style="fill:white;"/>
    <path d="M177.337,117.169L177.337,240.628L317.369,94.591C324.094,87.545 329.819,82.341 334.543,78.978C339.267,75.616 345.552,73.934 353.398,73.934C363.646,73.934 371.933,76.937 378.258,82.942C384.583,88.946 387.745,96.272 387.745,104.919C387.745,115.327 382.381,125.656 371.653,135.904L284.943,218.05L384.863,361.204C391.909,371.132 397.193,379.819 400.716,387.265C404.239,394.711 406,401.957 406,409.002C406,416.849 402.918,423.654 396.753,429.419C390.588,435.183 382.221,438.066 371.653,438.066C361.725,438.066 353.638,435.944 347.393,431.701C341.148,427.457 335.864,421.813 331.54,414.767C327.217,407.721 323.374,401.316 320.011,395.552L235.704,265.848L177.337,321.813L177.337,394.591C177.337,409.323 173.974,420.251 167.249,427.377C160.524,434.503 151.877,438.066 141.308,438.066C135.223,438.066 129.379,436.464 123.774,433.262C118.17,430.059 113.846,425.736 110.804,420.291C108.562,415.808 107.201,410.604 106.721,404.679C106.24,398.754 106,390.187 106,378.978L106,117.169C106,102.757 109.163,91.949 115.488,84.743C121.813,77.537 130.42,73.934 141.308,73.934C152.037,73.934 160.724,77.497 167.369,84.623C174.014,91.749 177.337,102.597 177.337,117.169Z" style="fill-rule:nonzero;"/>
</svg>
